<svg width="47" height="46" viewBox="0 0 47 46" fill="none" xmlns="http://www.w3.org/2000/svg">
<path d="M23.5 0C10.5425 0 0 10.3182 0 23C0 35.6818 10.5425 46 23.5 46C36.4575 46 47 35.6818 47 23C47 10.3182 36.4575 0 23.5 0ZM23.5 3.53846C34.5034 3.53846 43.3846 12.2307 43.3846 23C43.3846 33.7693 34.5034 42.4615 23.5 42.4615C12.4966 42.4615 3.61538 33.7693 3.61538 23C3.61538 12.2307 12.4966 3.53846 23.5 3.53846ZM16.6669 13.7646L14.0638 16.3123L20.9042 23L14.0675 29.6877L16.6705 32.2354L23.5 25.5424L30.3331 32.2301L32.9362 29.6877L26.0977 23L32.9307 16.3123L30.3331 13.7646L23.5 20.4594L16.6669 13.7682V13.7646Z" fill="#7FB77E"/>
</svg>
