<svg width="90" height="91" viewBox="0 0 90 91" fill="none" xmlns="http://www.w3.org/2000/svg">
<g filter="url(#filter0_d_197_76)">
<ellipse cx="45" cy="41.5" rx="41" ry="41.5" fill="white"/>
</g>
<path d="M33.6697 21.9367L28.9797 26.6257C28.6699 26.9332 28.4239 27.2989 28.2558 27.7017C28.0877 28.1045 28.0008 28.5366 28 28.9731C27.9992 29.4096 28.0847 29.8419 28.2514 30.2453C28.4181 30.6487 28.6628 31.0153 28.9715 31.3239C29.2802 31.6325 29.6467 31.8771 30.0502 32.0437C30.4536 32.2104 30.886 32.2957 31.3225 32.2948C31.759 32.294 32.191 32.207 32.5938 32.0388C32.9966 31.8706 33.3622 31.6245 33.6697 31.3147L38.3587 26.6247C38.965 25.9996 39.301 25.1611 39.2943 24.2903C39.2875 23.4195 38.9385 22.5864 38.3226 21.9707C37.7067 21.3551 36.8734 21.0065 36.0026 21.0001C35.1319 20.9937 34.2945 21.3301 33.6697 21.9367ZM43.8297 30.5337L37.5777 36.7857C37.2697 37.0936 37.0255 37.4592 36.8588 37.8616C36.6921 38.2639 36.6063 38.6952 36.6063 39.1307C36.6063 39.5662 36.6921 39.9974 36.8588 40.3998C37.0255 40.8021 37.2697 41.1677 37.5777 41.4757C37.8856 41.7836 38.2512 42.0279 38.6536 42.1946C39.0559 42.3612 39.4872 42.447 39.9227 42.447C40.3582 42.447 40.7894 42.3612 41.1918 42.1946C41.5941 42.0279 41.9597 41.7836 42.2677 41.4757L48.5197 35.2227C49.1416 34.6007 49.491 33.7572 49.491 32.8777C49.491 31.9981 49.1416 31.1546 48.5197 30.5327C47.8977 29.9107 47.0542 29.5613 46.1747 29.5613C45.2951 29.5613 44.4516 29.9117 43.8297 30.5337Z" stroke="#86B817" stroke-width="4"/>
<path d="M47.7366 36.0037L61.5066 49.7737C62.5346 50.8017 62.3176 52.6837 61.0236 53.9797C59.7286 55.2747 57.8456 55.4907 56.8176 54.4637L43.0476 40.6937M41.4846 23.4997L30.5436 34.4407C29.9217 35.0627 29.5723 35.9062 29.5723 36.7857C29.5723 37.6653 29.9217 38.5088 30.5436 39.1307C31.1655 39.7527 32.0091 40.1021 32.8886 40.1021C33.7681 40.1021 34.6117 39.7527 35.2336 39.1307L46.1736 28.1887C46.4834 27.8813 46.7295 27.5156 46.8977 27.1129C47.0659 26.7101 47.1529 26.278 47.1538 25.8415C47.1546 25.405 47.0693 24.9727 46.9027 24.5692C46.736 24.1658 46.4914 23.7992 46.1828 23.4905C45.8742 23.1818 45.5077 22.9371 45.1042 22.7704C44.7008 22.6037 44.2685 22.5183 43.832 22.519C43.3955 22.5198 42.9634 22.6067 42.5606 22.7749C42.1578 22.943 41.7921 23.19 41.4846 23.4997Z" stroke="#86B817" stroke-width="4"/>
<path d="M32.9108 40.2356C34.3348 44.6726 34.0978 47.9506 32.2008 50.0696C29.3538 53.2486 29.7958 61.2356 36.2268 61.2356C42.6578 61.2356 44.5468 53.2486 39.0988 50.4456" stroke="#86B817" stroke-width="4" stroke-linecap="round"/>
<defs>
<filter id="filter0_d_197_76" x="0" y="0" width="90" height="91" filterUnits="userSpaceOnUse" color-interpolation-filters="sRGB">
<feFlood flood-opacity="0" result="BackgroundImageFix"/>
<feColorMatrix in="SourceAlpha" type="matrix" values="0 0 0 0 0 0 0 0 0 0 0 0 0 0 0 0 0 0 127 0" result="hardAlpha"/>
<feOffset dy="4"/>
<feGaussianBlur stdDeviation="2"/>
<feComposite in2="hardAlpha" operator="out"/>
<feColorMatrix type="matrix" values="0 0 0 0 0 0 0 0 0 0 0 0 0 0 0 0 0 0 0.3 0"/>
<feBlend mode="normal" in2="BackgroundImageFix" result="effect1_dropShadow_197_76"/>
<feBlend mode="normal" in="SourceGraphic" in2="effect1_dropShadow_197_76" result="shape"/>
</filter>
</defs>
</svg>
