<svg width="90" height="91" viewBox="0 0 90 91" fill="none" xmlns="http://www.w3.org/2000/svg">
<g filter="url(#filter0_d_197_74)">
<ellipse cx="45" cy="41.5" rx="41" ry="41.5" fill="white"/>
</g>
<path d="M44.5 61C40.3195 58.887 35.5773 57.7746 30.75 57.7746C25.9227 57.7746 21.1805 58.887 17 61V26.2254C21.1805 24.1124 25.9227 23 30.75 23C35.5773 23 40.3195 24.1124 44.5 26.2254M44.5 61C48.6805 58.887 53.4227 57.7746 58.25 57.7746C63.0773 57.7746 67.8195 58.887 72 61V26.2254C67.8195 24.1124 63.0773 23 58.25 23C53.4227 23 48.6805 24.1124 44.5 26.2254M44.5 61V26.2254" stroke="#86B817" stroke-width="2" stroke-linecap="round" stroke-linejoin="round"/>
<defs>
<filter id="filter0_d_197_74" x="0" y="0" width="90" height="91" filterUnits="userSpaceOnUse" color-interpolation-filters="sRGB">
<feFlood flood-opacity="0" result="BackgroundImageFix"/>
<feColorMatrix in="SourceAlpha" type="matrix" values="0 0 0 0 0 0 0 0 0 0 0 0 0 0 0 0 0 0 127 0" result="hardAlpha"/>
<feOffset dy="4"/>
<feGaussianBlur stdDeviation="2"/>
<feComposite in2="hardAlpha" operator="out"/>
<feColorMatrix type="matrix" values="0 0 0 0 0 0 0 0 0 0 0 0 0 0 0 0 0 0 0.3 0"/>
<feBlend mode="normal" in2="BackgroundImageFix" result="effect1_dropShadow_197_74"/>
<feBlend mode="normal" in="SourceGraphic" in2="effect1_dropShadow_197_74" result="shape"/>
</filter>
</defs>
</svg>
