<svg width="90" height="91" viewBox="0 0 90 91" fill="none" xmlns="http://www.w3.org/2000/svg">
<g filter="url(#filter0_d_209_70)">
<ellipse cx="45" cy="41.5" rx="41" ry="41.5" fill="white"/>
</g>
<path d="M60.4061 44.875H44.5268L45.0133 44.3059L49.1663 39.4476C50.8437 40.4358 52.6919 40.9626 54.5698 40.9879C56.4601 40.9938 58.315 40.3886 59.9299 39.2393C64.8407 35.7615 67.472 27.7112 66.969 17.704C66.9453 17.23 66.7737 16.7827 66.4867 16.4469C66.1997 16.1112 65.8173 15.9104 65.4121 15.8828C56.8575 15.2967 49.9758 18.3724 47.0029 24.1171C45.065 27.8589 45.0154 32.3782 46.8227 36.7109L43.8436 40.196L41.3157 37.2389C42.5579 34.0299 42.4689 30.6998 41.0279 27.9195C38.7775 23.5625 33.6183 21.2399 27.2252 21.6783C26.8207 21.7065 26.4391 21.9072 26.1525 22.2424C25.866 22.5775 25.6945 23.024 25.6704 23.4971C25.2936 30.9735 27.2811 37.0088 31.0076 39.6438C32.2543 40.5345 33.6875 41.004 35.1482 41C36.4735 40.9846 37.7806 40.6387 38.9825 39.9853L41.5 42.9375L39.8437 44.875H30.5936C30.1543 44.875 29.733 45.0792 29.4224 45.4425C29.1118 45.8059 28.9373 46.2987 28.9373 46.8125C28.9373 47.3264 29.1118 47.8192 29.4224 48.1825C29.733 48.5459 30.1543 48.75 30.5936 48.75H32.579L35.3139 63.1529C35.4742 64.0155 35.8828 64.7876 36.4715 65.34C37.0601 65.8924 37.7931 66.1916 38.5477 66.1875H52.454C53.2086 66.1916 53.9416 65.8924 54.5302 65.34C55.1189 64.7876 55.5275 64.0155 55.6878 63.1529L58.4227 48.75H60.4061C60.8453 48.75 61.2666 48.5459 61.5772 48.1825C61.8878 47.8192 62.0623 47.3264 62.0623 46.8125C62.0623 46.2987 61.8878 45.8059 61.5772 45.4425C61.2666 45.0792 60.8453 44.875 60.4061 44.875ZM49.8475 26.1249C52.013 21.9447 57.1432 19.5858 63.7186 19.6899C63.8034 27.3939 61.7911 33.3929 58.2177 35.9165C55.8348 37.6118 52.9591 37.5004 50.0856 35.6307C48.4852 32.2813 48.3982 28.9124 49.8475 26.1249ZM38.0695 36.1829C36.1648 37.3769 34.2787 37.4326 32.7218 36.3282C30.341 34.6402 28.9684 30.661 28.9373 25.5C33.3491 25.5364 36.7527 27.1421 38.1937 29.9272C39.1377 31.7485 39.0818 33.9548 38.0695 36.1829ZM52.454 62.3125H38.5477L35.9764 48.75H55.0232L52.454 62.3125Z" fill="#9DD100"/>
<defs>
<filter id="filter0_d_209_70" x="0" y="0" width="90" height="91" filterUnits="userSpaceOnUse" color-interpolation-filters="sRGB">
<feFlood flood-opacity="0" result="BackgroundImageFix"/>
<feColorMatrix in="SourceAlpha" type="matrix" values="0 0 0 0 0 0 0 0 0 0 0 0 0 0 0 0 0 0 127 0" result="hardAlpha"/>
<feOffset dy="4"/>
<feGaussianBlur stdDeviation="2"/>
<feComposite in2="hardAlpha" operator="out"/>
<feColorMatrix type="matrix" values="0 0 0 0 0 0 0 0 0 0 0 0 0 0 0 0 0 0 0.3 0"/>
<feBlend mode="normal" in2="BackgroundImageFix" result="effect1_dropShadow_209_70"/>
<feBlend mode="normal" in="SourceGraphic" in2="effect1_dropShadow_209_70" result="shape"/>
</filter>
</defs>
</svg>
