<svg width="201" height="40" viewBox="0 0 201 40" fill="none" xmlns="http://www.w3.org/2000/svg">
<path fill-rule="evenodd" clip-rule="evenodd" d="M8.55273 3.59787C7.12207 4.59823 5.82837 5.78098 4.70532 7.1124C9.29462 6.68633 15.1252 7.38205 21.8944 10.7667C29.123 14.3809 34.9438 14.5031 38.9948 13.7217C38.6272 12.6088 38.1644 11.5392 37.6163 10.5224C32.979 11.0115 27.034 10.3641 20.1056 6.89998C15.706 4.70018 11.8278 3.79401 8.55273 3.59787ZM34.9074 6.66665C31.2453 2.575 25.9234 0 20 0C18.2605 0 16.5727 0.222107 14.9637 0.63948C17.1429 1.23409 19.4579 2.10399 21.8944 3.32227C26.967 5.85853 31.3464 6.67516 34.9074 6.66665ZM39.8609 17.6281C34.9669 18.5945 28.2088 18.396 20.1056 14.3444C12.53 10.5566 6.50043 10.6043 2.4339 11.508C2.224 11.5546 2.01904 11.6036 1.81903 11.6546C1.28662 12.8125 0.861634 14.0301 0.556702 15.2945C0.882386 15.2075 1.21893 15.1248 1.56616 15.0476C6.49957 13.9513 13.4701 13.9989 21.8944 18.2111C29.4701 21.9989 35.4996 21.9512 39.5662 21.0475C39.7055 21.0166 39.8428 20.9846 39.9778 20.9516C39.9926 20.6363 40 20.319 40 20C40 19.1975 39.9528 18.406 39.8609 17.6281ZM39.3248 25.1723C34.4783 26.0196 27.917 25.6944 20.1056 21.7888C12.53 18.001 6.50043 18.0487 2.4339 18.9524C1.53125 19.1529 0.719239 19.3972 0.00293 19.6551C0.000977 19.7698 0 19.8848 0 20C0 31.0457 8.95429 40 20 40C29.2571 40 37.0453 33.7109 39.3248 25.1723Z" fill="url(#paint0_linear_119_48)"/>
<path d="M61.016 25.336H66.536V28H57.656V11.248H61.016V25.336ZM81.0316 21.064C81.0316 21.544 80.9996 21.976 80.9356 22.36H71.2156C71.2956 23.32 71.6316 24.072 72.2236 24.616C72.8156 25.16 73.5436 25.432 74.4076 25.432C75.6556 25.432 76.5436 24.896 77.0716 23.824H80.6956C80.3116 25.104 79.5756 26.16 78.4876 26.992C77.3996 27.808 76.0636 28.216 74.4796 28.216C73.1996 28.216 72.0476 27.936 71.0236 27.376C70.0156 26.8 69.2236 25.992 68.6476 24.952C68.0876 23.912 67.8076 22.712 67.8076 21.352C67.8076 19.976 68.0876 18.768 68.6476 17.728C69.2076 16.688 69.9916 15.888 70.9996 15.328C72.0076 14.768 73.1676 14.488 74.4796 14.488C75.7436 14.488 76.8716 14.76 77.8636 15.304C78.8716 15.848 79.6476 16.624 80.1916 17.632C80.7516 18.624 81.0316 19.768 81.0316 21.064ZM77.5516 20.104C77.5356 19.24 77.2236 18.552 76.6156 18.04C76.0076 17.512 75.2636 17.248 74.3836 17.248C73.5516 17.248 72.8476 17.504 72.2716 18.016C71.7116 18.512 71.3676 19.208 71.2396 20.104H77.5516ZM86.8441 16.648C87.2761 16.008 87.8681 15.488 88.6201 15.088C89.3881 14.688 90.2601 14.488 91.2361 14.488C92.3721 14.488 93.3961 14.768 94.3081 15.328C95.2361 15.888 95.9641 16.688 96.4921 17.728C97.0361 18.752 97.3081 19.944 97.3081 21.304C97.3081 22.664 97.0361 23.872 96.4921 24.928C95.9641 25.968 95.2361 26.776 94.3081 27.352C93.3961 27.928 92.3721 28.216 91.2361 28.216C90.2441 28.216 89.3721 28.024 88.6201 27.64C87.8841 27.24 87.2921 26.728 86.8441 26.104V28H83.4841V10.24H86.8441V16.648ZM93.8761 21.304C93.8761 20.504 93.7081 19.816 93.3721 19.24C93.0521 18.648 92.6201 18.2 92.0761 17.896C91.5481 17.592 90.9721 17.44 90.3481 17.44C89.7401 17.44 89.1641 17.6 88.6201 17.92C88.0921 18.224 87.6601 18.672 87.3241 19.264C87.0041 19.856 86.8441 20.552 86.8441 21.352C86.8441 22.152 87.0041 22.848 87.3241 23.44C87.6601 24.032 88.0921 24.488 88.6201 24.808C89.1641 25.112 89.7401 25.264 90.3481 25.264C90.9721 25.264 91.5481 25.104 92.0761 24.784C92.6201 24.464 93.0521 24.008 93.3721 23.416C93.7081 22.824 93.8761 22.12 93.8761 21.304ZM98.8857 21.304C98.8857 19.96 99.1497 18.768 99.6777 17.728C100.222 16.688 100.95 15.888 101.862 15.328C102.79 14.768 103.822 14.488 104.958 14.488C105.95 14.488 106.814 14.688 107.55 15.088C108.302 15.488 108.902 15.992 109.35 16.6V14.704H112.734V28H109.35V26.056C108.918 26.68 108.318 27.2 107.55 27.616C106.798 28.016 105.926 28.216 104.934 28.216C103.814 28.216 102.79 27.928 101.862 27.352C100.95 26.776 100.222 25.968 99.6777 24.928C99.1497 23.872 98.8857 22.664 98.8857 21.304ZM109.35 21.352C109.35 20.536 109.19 19.84 108.87 19.264C108.55 18.672 108.118 18.224 107.574 17.92C107.03 17.6 106.446 17.44 105.822 17.44C105.198 17.44 104.622 17.592 104.094 17.896C103.566 18.2 103.134 18.648 102.798 19.24C102.478 19.816 102.318 20.504 102.318 21.304C102.318 22.104 102.478 22.808 102.798 23.416C103.134 24.008 103.566 24.464 104.094 24.784C104.638 25.104 105.214 25.264 105.822 25.264C106.446 25.264 107.03 25.112 107.574 24.808C108.118 24.488 108.55 24.04 108.87 23.464C109.19 22.872 109.35 22.168 109.35 21.352ZM123.503 14.512C124.511 14.512 125.407 14.736 126.191 15.184C126.975 15.616 127.583 16.264 128.015 17.128C128.463 17.976 128.687 19 128.687 20.2V28H125.327V20.656C125.327 19.6 125.063 18.792 124.535 18.232C124.007 17.656 123.287 17.368 122.375 17.368C121.447 17.368 120.711 17.656 120.167 18.232C119.639 18.792 119.375 19.6 119.375 20.656V28H116.015V10.24H119.375V16.36C119.807 15.784 120.383 15.336 121.103 15.016C121.823 14.68 122.623 14.512 123.503 14.512Z" fill="#A557B4"/>
<path d="M150.147 11.248V28H146.787V17.104L142.299 28H139.755L135.243 17.104V28H131.883V11.248H135.699L141.027 23.704L146.355 11.248H150.147ZM152.604 21.304C152.604 19.96 152.868 18.768 153.396 17.728C153.941 16.688 154.669 15.888 155.581 15.328C156.509 14.768 157.541 14.488 158.677 14.488C159.669 14.488 160.533 14.688 161.269 15.088C162.021 15.488 162.621 15.992 163.069 16.6V14.704H166.453V28H163.069V26.056C162.637 26.68 162.037 27.2 161.269 27.616C160.517 28.016 159.645 28.216 158.653 28.216C157.533 28.216 156.509 27.928 155.581 27.352C154.669 26.776 153.941 25.968 153.396 24.928C152.868 23.872 152.604 22.664 152.604 21.304ZM163.069 21.352C163.069 20.536 162.909 19.84 162.589 19.264C162.269 18.672 161.837 18.224 161.293 17.92C160.749 17.6 160.165 17.44 159.541 17.44C158.917 17.44 158.341 17.592 157.812 17.896C157.285 18.2 156.853 18.648 156.517 19.24C156.197 19.816 156.037 20.504 156.037 21.304C156.037 22.104 156.197 22.808 156.517 23.416C156.853 24.008 157.285 24.464 157.812 24.784C158.357 25.104 158.933 25.264 159.541 25.264C160.165 25.264 160.749 25.112 161.293 24.808C161.837 24.488 162.269 24.04 162.589 23.464C162.909 22.872 163.069 22.168 163.069 21.352ZM168.87 21.304C168.87 19.96 169.134 18.768 169.662 17.728C170.206 16.688 170.942 15.888 171.87 15.328C172.798 14.768 173.83 14.488 174.966 14.488C175.83 14.488 176.654 14.68 177.438 15.064C178.222 15.432 178.846 15.928 179.31 16.552V10.24H182.718V28H179.31V26.032C178.894 26.688 178.31 27.216 177.558 27.616C176.806 28.016 175.934 28.216 174.942 28.216C173.822 28.216 172.798 27.928 171.87 27.352C170.942 26.776 170.206 25.968 169.662 24.928C169.134 23.872 168.87 22.664 168.87 21.304ZM179.334 21.352C179.334 20.536 179.174 19.84 178.854 19.264C178.534 18.672 178.102 18.224 177.558 17.92C177.014 17.6 176.43 17.44 175.806 17.44C175.182 17.44 174.606 17.592 174.078 17.896C173.55 18.2 173.118 18.648 172.782 19.24C172.462 19.816 172.302 20.504 172.302 21.304C172.302 22.104 172.462 22.808 172.782 23.416C173.118 24.008 173.55 24.464 174.078 24.784C174.622 25.104 175.198 25.264 175.806 25.264C176.43 25.264 177.014 25.112 177.558 24.808C178.102 24.488 178.534 24.04 178.854 23.464C179.174 22.872 179.334 22.168 179.334 21.352ZM198.552 14.704V28H195.168V26.32C194.736 26.896 194.168 27.352 193.464 27.688C192.776 28.008 192.024 28.168 191.208 28.168C190.168 28.168 189.248 27.952 188.448 27.52C187.648 27.072 187.016 26.424 186.552 25.576C186.104 24.712 185.88 23.688 185.88 22.504V14.704H189.24V22.024C189.24 23.08 189.504 23.896 190.032 24.472C190.56 25.032 191.28 25.312 192.192 25.312C193.12 25.312 193.848 25.032 194.376 24.472C194.904 23.896 195.168 23.08 195.168 22.024V14.704H198.552Z" fill="#7552C0"/>
<defs>
<linearGradient id="paint0_linear_119_48" x1="36" y1="43.2" x2="-3.73321" y2="35.5931" gradientUnits="userSpaceOnUse">
<stop stop-color="#5D50C6"/>
<stop offset="1" stop-color="#F85E9F"/>
</linearGradient>
</defs>
</svg>
